HIERARCHY
ROOT Hips
{
 OFFSET 0.000000 0.000000 0.000000
 CHANNELS 6 Xposition Yposition Zposition Yrotation Xrotation Zrotation
 JOINT Chest
 {
  OFFSET 0.000000 14.374500 -0.011500
  CHANNELS 3 Yrotation Xrotation Zrotation
  JOINT Chest2
  {
   OFFSET 0.000000 9.203400 0.023400
   CHANNELS 3 Yrotation Xrotation Zrotation
   JOINT Chest3
   {
    OFFSET 0.000000 9.162700 0.000000
    CHANNELS 3 Yrotation Xrotation Zrotation
    JOINT Chest4
    {
     OFFSET 0.000000 9.153300 0.000000
     CHANNELS 3 Yrotation Xrotation Zrotation
     JOINT Neck
     {
      OFFSET 0.000000 13.353600 0.000000
      CHANNELS 3 Yrotation Xrotation Zrotation
      JOINT Head
      {
       OFFSET 0.000000 8.573800 0.049400
       CHANNELS 3 Yrotation Xrotation Zrotation
       End Site
       {
        OFFSET 0.000000 16.219200 0.026100
       }
      }
     }
     JOINT RightCollar
     {
      OFFSET -2.497100 8.876100 0.000000
      CHANNELS 3 Yrotation Xrotation Zrotation
      JOINT RightShoulder
      {
       OFFSET -12.289200 0.000000 0.000000
       CHANNELS 3 Yrotation Xrotation Zrotation
       JOINT RightElbow
       {
        OFFSET 0.000000 -28.194900 0.000000
        CHANNELS 3 Yrotation Xrotation Zrotation
        JOINT RightWrist
        {
         OFFSET 0.000000 -23.009700 0.007900
         CHANNELS 3 Yrotation Xrotation Zrotation
         End Site
         {
          OFFSET 0.000000 -17.151500 0.000000
         }
        }
       }
      }
     }
     JOINT LeftCollar
     {
      OFFSET 2.497100 8.876100 0.000000
      CHANNELS 3 Yrotation Xrotation Zrotation
      JOINT LeftShoulder
      {
       OFFSET 12.289200 0.000000 0.000000
       CHANNELS 3 Yrotation Xrotation Zrotation
       JOINT LeftElbow
       {
        OFFSET 0.000000 -28.194900 0.000000
        CHANNELS 3 Yrotation Xrotation Zrotation
        JOINT LeftWrist
        {
         OFFSET 0.000000 -23.009700 0.007900
         CHANNELS 3 Yrotation Xrotation Zrotation
         End Site
         {
          OFFSET 0.000000 -17.151500 0.000000
         }
        }
       }
      }
     }
    }
   }
  }
 }
 JOINT RightHip
 {
  OFFSET -11.777600 0.056700 0.005700
  CHANNELS 3 Yrotation Xrotation Zrotation
  JOINT RightKnee
  {
   OFFSET 0.000000 -39.966000 -0.004200
   CHANNELS 3 Yrotation Xrotation Zrotation
   JOINT RightAnkle
   {
    OFFSET 0.000000 -41.981900 0.027400
    CHANNELS 3 Yrotation Xrotation Zrotation
    JOINT RightToe
    {
     OFFSET 0.000000 -9.910600 16.950100
     CHANNELS 3 Yrotation Xrotation Zrotation
     End Site
     {
      OFFSET 0.000000 -1.461000 6.191600
     }
    }
   }
  }
 }
 JOINT LeftHip
 {
  OFFSET 11.777600 0.056700 0.005700
  CHANNELS 3 Yrotation Xrotation Zrotation
  JOINT LeftKnee
  {
   OFFSET 0.000000 -39.966000 -0.004200
   CHANNELS 3 Yrotation Xrotation Zrotation
   JOINT LeftAnkle
   {
    OFFSET 0.000000 -41.981900 0.027400
    CHANNELS 3 Yrotation Xrotation Zrotation
    JOINT LeftToe
    {
     OFFSET 0.000000 -9.910600 16.950100
     CHANNELS 3 Yrotation Xrotation Zrotation
     End Site
     {
      OFFSET 0.000000 -1.461000 6.191600
     }
    }
   }
  }
 }
}
MOTION
Frames: 13
Frame Time: 0.008333
3.930708 130.364345 26.073088 174.360370 -42.504356 -2.653883 2.656412 22.115205 1.796403 0.323651 3.100417 0.168907 0.524832 4.984482 0.324938 2.174345 18.722327 1.439182 -3.459676 19.672798 -0.795312 -3.549026 -4.816883 -0.013309 0.186203 -1.570475 -0.057504 5.596599 -14.700199 -15.911982 -174.744568 -56.191975 -156.175036 26.885227 -18.202294 -62.020410 -3.584129 -4.558224 2.209226 -3.925465 -10.848008 9.948492 164.935435 -65.474962 162.042821 -28.121963 -44.631195 64.132876 9.798576 -35.164356 -0.631033 -83.341095 86.830718 -83.856770 0.876070 -25.972273 8.254992 -0.000805 0.004146 -0.000471 0.217402 -28.669398 -6.960620 150.469571 67.102464 162.605570 6.502889 3.226435 1.250866 -0.005596 0.011052 -0.003273
3.933571 130.363031 26.074962 174.353486 -42.492919 -2.647591 2.661890 22.122445 1.782080 0.325359 3.096785 0.163714 0.534783 5.006673 0.299749 2.201703 18.728602 1.406646 -3.492321 19.681276 -0.717098 -3.560467 -4.840058 0.033136 0.176164 -1.711219 -0.046830 6.237534 -14.708122 -16.600347 -175.971591 -57.682638 -154.358598 26.958559 -18.367620 -62.012228 -3.610238 -4.644134 2.288243 -4.797787 -10.761272 10.589629 165.841729 -67.277605 160.361950 -27.902347 -44.833843 63.700486 9.798277 -35.176357 -0.641148 -83.381519 86.820421 -83.891844 0.884847 -25.983698 8.253677 0.001637 0.003360 0.000957 0.201667 -28.706987 -6.964615 150.467913 67.102902 162.604966 6.488716 3.300340 1.227700 -0.001805 0.005645 -0.001055
3.935985 130.364675 26.075380 174.306865 -42.508287 -2.612735 2.696875 22.148187 1.764742 0.326513 3.098810 0.159507 0.539185 5.013343 0.294884 2.214550 18.739052 1.388898 -3.497114 19.663138 -0.673223 -3.610908 -4.831867 0.077294 0.187286 -1.857186 -0.063192 6.958356 -14.727381 -17.348781 -177.463200 -59.217241 -152.265378 27.038314 -18.545694 -61.969208 -3.661384 -4.765676 2.294975 -5.717903 -10.652642 11.270110 167.321132 -69.081098 158.173497 -27.629538 -45.105466 63.062578 9.787955 -35.164357 -0.658430 -83.226236 86.820516 -83.742091 0.928710 -25.989851 8.232678 -0.000430 0.003745 -0.000252 0.232328 -28.709877 -6.969710 150.465975 67.121172 162.618683 6.440370 3.443146 1.207645 -0.004087 0.028543 -0.002390
3.937905 130.366742 26.077155 174.260958 -42.533965 -2.577485 2.729273 22.182043 1.743972 0.330547 3.104336 0.157727 0.540755 5.009285 0.301843 2.226610 18.770102 1.361180 -3.505995 19.634041 -0.632123 -3.630132 -4.834132 0.100392 0.206897 -2.039482 -0.069445 7.763693 -14.738461 -18.158496 -179.268945 -60.770915 -149.865886 27.127792 -18.757356 -61.891593 -3.759346 -4.938796 2.265655 -6.733913 -10.517070 11.982012 169.409628 -70.857511 155.494831 -27.304256 -45.473865 62.201232 9.793903 -35.142955 -0.666701 -83.074982 86.823377 -83.597977 0.940108 -25.994760 8.230496 -0.001025 0.004422 -0.000599 0.234511 -28.721616 -6.972542 150.469972 67.123459 162.614535 6.401509 3.575762 1.176508 -0.003759 0.032591 -0.002199
3.939161 130.367799 26.081753 174.237822 -42.561023 -2.556575 2.744847 22.224655 1.706939 0.336356 3.100827 0.175937 0.544385 5.034669 0.286957 2.241091 18.786112 1.350868 -3.536340 19.610432 -0.594272 -3.701830 -4.824462 0.152750 0.236729 -2.249110 -0.063901 8.652111 -14.745366 -19.022124 178.589036 -62.318412 -147.157383 27.232444 -18.998103 -61.765803 -3.889017 -5.095888 2.225391 -7.882170 -10.414752 12.694485 172.154610 -72.575587 152.302986 -26.977969 -45.914370 61.207275 9.779709 -35.120540 -0.670508 -82.952418 86.834285 -83.491132 0.937771 -26.000974 8.234764 -0.003579 0.003560 -0.002093 0.218734 -28.733681 -6.980492 150.447000 67.120104 162.581508 6.362218 3.691216 1.148746 -0.005392 0.036917 -0.003154
3.938853 130.368187 26.088615 174.220072 -42.591972 -2.534270 2.748270 22.261066 1.675664 0.345627 3.099930 0.190047 0.542682 5.071995 0.260105 2.255285 18.790934 1.350984 -3.615074 19.652695 -0.585751 -3.744119 -4.848550 0.209414 0.286172 -2.444476 -0.057564 9.607885 -14.770157 -19.928138 176.116334 -63.834347 -144.143481 27.361091 -19.238697 -61.585779 -4.052580 -5.227198 2.154424 -9.119600 -10.320717 13.402278 175.615902 -74.184114 148.491277 -26.708013 -46.383281 60.254976 9.764361 -35.095215 -0.677701 -82.844197 86.844116 -83.398552 0.932120 -26.007294 8.239902 -0.004000 0.003091 -0.002339 0.205751 -28.746092 -7.001869 150.372969 67.142142 162.519840 6.311767 3.845359 1.107634 0.002150 0.020234 0.001257
3.940289 130.365549 26.100801 174.224307 -42.611378 -2.535919 2.733358 22.280320 1.650165 0.352305 3.120269 0.188961 0.540843 5.081749 0.253807 2.273073 18.777226 1.366958 -3.697362 19.719481 -0.596610 -3.783932 -4.848879 0.250703 0.357946 -2.592695 -0.061686 10.614680 -14.820431 -20.857855 173.290626 -65.285616 -140.782463 27.517622 -19.461078 -61.370416 -4.243000 -5.322707 2.037697 -10.353529 -10.229802 14.109746 179.680693 -75.631062 144.071892 -26.512339 -46.860358 59.506996 9.728772 -35.083345 -0.676647 -82.652751 86.839685 -83.214633 0.940978 -26.006999 8.237787 -0.002375 0.003105 -0.001389 0.137846 -28.803597 -7.010067 150.348249 67.120101 162.469302 6.281888 3.962161 1.078120 0.004801 -0.008863 0.002807
3.942874 130.369051 26.108023 174.199878 -42.674637 -2.520383 2.749255 22.340983 1.641629 0.344571 3.130224 0.175064 0.544420 5.102607 0.250354 2.276297 18.801351 1.347232 -3.750873 19.747944 -0.570525 -3.844993 -4.824337 0.290355 0.467778 -2.764360 -0.025665 11.661890 -14.881862 -21.788168 170.087887 -66.643795 -137.028841 27.690935 -19.692691 -61.165157 -4.442715 -5.467637 1.929901 -11.476727 -10.146555 14.828838 -175.918315 -76.897641 139.204540 -26.433244 -47.287792 59.110095 9.717734 -35.028498 -0.663707 -82.460046 86.832983 -83.027479 0.956548 -26.000224 8.231259 -0.001489 0.004512 -0.000871 0.129326 -28.791359 -7.010176 150.317874 67.122634 162.444165 6.221458 4.134354 1.044470 0.002289 0.004341 0.001339
3.943016 130.372305 26.116515 174.172537 -42.743080 -2.493041 2.765124 22.407005 1.623668 0.341075 3.141374 0.161994 0.538642 5.123245 0.247860 2.260616 18.886766 1.289374 -3.784238 19.723459 -0.508873 -3.913718 -4.798467 0.329884 0.621638 -2.993879 0.051030 12.732693 -14.941044 -22.707192 166.574789 -67.911374 -132.919160 27.868488 -19.985143 -61.017553 -4.637156 -5.697689 1.834269 -12.444842 -10.080179 15.558963 -171.455450 -78.011233 134.104780 -26.496106 -47.602468 59.122034 9.706681 -34.970660 -0.655893 -82.234442 86.824212 -82.814118 0.972035 -25.993109 8.223462 0.000724 0.011031 0.000423 0.144465 -28.756905 -7.023309 150.265778 67.136625 162.406340 6.173989 4.254964 1.020929 0.006140 0.029635 0.003590
3.944171 130.378426 26.123212 174.136230 -42.833561 -2.462083 2.773603 22.488309 1.595990 0.341545 3.157317 0.158936 0.543939 5.144897 0.241751 2.246688 18.945900 1.253820 -3.839626 19.721215 -0.469926 -3.993609 -4.777877 0.375978 0.799915 -3.211742 0.122288 13.791433 -14.985913 -23.613963 162.887659 -69.103241 -128.559756 28.030374 -20.357032 -60.941736 -4.829099 -5.930113 1.694101 -13.305918 -10.036680 16.295208 -167.163707 -79.037496 129.023846 -26.631078 -47.825360 59.417891 9.690231 -34.888341 -0.632015 -81.962403 86.820526 -82.566262 0.984259 -25.990529 8.219949 0.001548 0.004395 0.000905 0.165696 -28.696957 -7.032604 150.211161 67.155678 162.361740 6.141411 4.381829 1.003868 0.010389 0.035540 0.006075
3.945765 130.382784 26.132792 174.123027 -42.916641 -2.448971 2.771333 22.556261 1.574446 0.331180 3.174094 0.137051 0.564945 5.157424 0.264558 2.228103 18.998942 1.213091 -3.917566 19.727096 -0.431782 -4.087020 -4.767168 0.434520 0.992105 -3.432402 0.200067 14.802152 -15.014829 -24.500525 159.122470 -70.233259 -124.031997 28.149346 -20.772776 -60.918412 -5.015956 -6.164047 1.528705 -14.151151 -10.008933 17.026046 -163.039313 -80.033439 124.030251 -26.748166 -48.007634 59.800359 9.680078 -34.809319 -0.614006 -81.670292 86.815798 -82.279437 0.985634 -25.992794 8.216640 0.003239 0.002143 0.001894 0.159101 -28.667639 -7.040131 150.177606 67.158803 162.328175 6.112774 4.528773 0.993794 0.013277 0.030367 0.007764
3.947365 130.381124 26.149483 174.133024 -42.966035 -2.453984 2.751577 22.593511 1.549372 0.324044 3.180176 0.124325 0.582329 5.179684 0.281678 2.200279 19.036002 1.167595 -4.003598 19.725278 -0.382694 -4.191672 -4.764630 0.506747 1.205800 -3.646671 0.276539 15.744103 -15.052538 -25.356628 155.301857 -71.309795 -119.350441 28.235767 -21.154492 -60.913047 -5.178335 -6.393709 1.354744 -15.033895 -9.986528 17.724028 -158.778165 -81.004870 118.887933 -26.797103 -48.193830 60.126122 9.653572 -34.765458 -0.598934 -81.414564 86.802628 -82.025248 0.990875 -25.994957 8.207801 0.002862 0.003337 0.001673 0.134446 -28.669142 -7.044491 150.134101 67.164687 162.282946 6.095928 4.652545 0.995186 0.006374 0.010801 0.003727
3.948975 130.379119 26.166817 174.131020 -43.014643 -2.450689 2.713924 22.589274 1.483688 0.353081 3.226642 0.160394 0.548340 5.203628 0.223780 2.223044 19.057348 1.169005 -4.098694 19.714851 -0.318595 -4.309653 -4.771082 0.597180 1.434167 -3.841600 0.347620 16.599046 -15.118658 -26.180036 151.482950 -72.300333 -114.567342 28.318335 -21.464958 -60.891996 -5.317049 -6.606564 1.191879 -15.946365 -9.976675 18.361353 -153.831312 -81.906077 113.084151 -26.789960 -48.428544 60.349962 9.620448 -34.726214 -0.570079 -81.178580 86.782668 -81.807993 0.991957 -26.002856 8.206547 0.003217 0.000438 0.001881 0.110817 -28.705108 -7.054412 150.115412 67.143711 162.250063 6.074326 4.823946 1.006564 0.001870 0.008866 0.001093
